<?xml version="1.0" encoding="utf-8"?>
<!-- Generator: Adobe Illustrator 20.0.0, SVG Export Plug-In . SVG Version: 6.00 Build 0)  -->
<!DOCTYPE svg PUBLIC "-//W3C//DTD SVG 1.1//EN" "http://www.w3.org/Graphics/SVG/1.1/DTD/svg11.dtd">
<svg version="1.1" xmlns="http://www.w3.org/2000/svg" xmlns:xlink="http://www.w3.org/1999/xlink" x="0px" y="0px"
	 viewBox="0 0 179.1 538" enable-background="new 0 0 179.1 538" xml:space="preserve">
<g id="change1">
	<g>
		<path fill="#E0F7FA" d="M103.9,128.5L5.8,152.9c-4.1,1-6.6,5.2-5.6,9.2l1.5,5.8c1,4.1,5.2,6.6,9.2,5.6l3.2-0.8l59.7,239.5
			c6.2,24.7,31.2,39.8,56,33.7c24.7-6.2,39.8-31.2,33.7-56l-59.7-239.5l5.3-1.3c4.1-1,6.6-5.2,5.6-9.2l-1.5-5.8
			C112.1,129.9,108,127.4,103.9,128.5z"/>
	</g>
</g>
<g id="change2">
	<g>
		<polygon fill="#EFD7C2" points="179.1,451.4 152.3,537.9 89,473.3 124.1,424.2 		"/>
	</g>
</g>
<g id="change3">
	<g>
		<path fill="#EFB511" d="M38.3,269.9l1.5,6.2l49.3,197.8l0.1,0l14,13.8c7.5-3.7,10.8-11.4,9.4-19.6l0.1,0L71.3,301.9l-10.6-42.5
			C47.2,258.4,37.1,259.4,38.3,269.9z"/>
	</g>
</g>
<g id="change4">
	<g>
		<path fill="#FFD54F" d="M155.1,456.7l-41.2-165.5l-7.7-30.7c-0.2,0.1-0.5,0.1-0.7,0.2c-0.6,0.1-1.1,0.3-1.8,0.4
			c-11.9,2.4-28.5-0.5-42-1.6c-0.4,0-0.7-0.1-1.1-0.1l10.6,42.5L112.6,468l0,0c0,0,0,0,0,0c2.9,11.8,14.8,19,26.6,16.2
			c11.9-2.9,18.9-14.7,16-26.5C155.3,457.4,155.2,457,155.1,456.7z"/>
		
			<ellipse transform="matrix(0.9704 -0.2416 0.2416 0.9704 -25.6313 10.4871)" fill="#FFD54F" cx="29.9" cy="109.7" rx="11.8" ry="11.8"/>
		
			<ellipse transform="matrix(0.9704 -0.2416 0.2416 0.9704 -12.1897 14.9952)" fill="#FFD54F" cx="55" cy="57.2" rx="7.7" ry="7.7"/>
		<ellipse transform="matrix(0.9704 -0.2416 0.2416 0.9704 -1.843 5.7967)" fill="#FFD54F" cx="22.7" cy="10.4" rx="7.7" ry="7.7"/>
	</g>
</g>
<g id="change5">
	<g>
		<path fill="#FFE08A" d="M105.7,260.6l7.7,30.7l41.4,166.1l0.2,0c2.6,7.9,9.2,13.2,17.4,13l6.2-18.9l0,0l-50.1-201.5
			C119.2,250.8,120.9,256.9,105.7,260.6z"/>
	</g>
</g>
<g id="change6">
	<g>
		<polygon fill="#77560E" points="127.7,512.8 152.5,538 162.9,504.3 		"/>
		<path fill="#77560E" d="M63.7,259.8c50.5-37.8,64.8-9.7,64.8-9.7S106.5,272.4,63.7,259.8z"/>
	</g>
</g>
<g id="x">
	
		<rect x="14.1" y="161.8" transform="matrix(0.9704 -0.2416 0.2416 0.9704 -38.5756 19.5098)" opacity="0.2" width="92.4" height="10.5"/>
</g>
</svg>
